<svg xmlns="http://www.w3.org/2000/svg" width="32" height="32" viewBox="0 0 636 536" version="1.1"><path d="" stroke="none" fill="currentColor" fill-rule="evenodd"/><path d="M 307.807 79.571 C 287.927 83.168, 269.854 95.044, 259.741 111.156 C 236.355 148.418, 249.456 195.546, 288.500 214.618 C 299.142 219.816, 308.357 221.965, 320 221.965 C 331.643 221.965, 340.858 219.816, 351.500 214.618 C 370.149 205.508, 382.731 190.600, 389.155 170 C 391.040 163.956, 391.493 160.267, 391.487 151 C 391.482 144.675, 390.880 137.025, 390.148 134 C 387.989 125.075, 379.745 109.152, 373.928 102.669 C 363.268 90.789, 347.852 82.379, 331.510 79.530 C 321.128 77.719, 318.014 77.725, 307.807 79.571 M 310.003 107.738 C 303.787 108.898, 294.704 114.126, 289.313 119.647 C 265.495 144.043, 276.493 183.808, 309.500 192.639 C 323.618 196.415, 339.850 191.873, 350.572 181.145 C 378.136 153.566, 358.436 106.399, 319.661 107.136 C 315.722 107.211, 311.377 107.482, 310.003 107.738 M 135.230 130.015 C 111.199 136.311, 92.255 154.436, 84.205 178.833 C 80.602 189.750, 80.441 208.037, 83.851 219 C 91.786 244.512, 110.967 263.096, 136 269.523 C 144.637 271.741, 161.396 271.739, 169.942 269.519 C 191.400 263.945, 207.839 250.463, 217.516 230.500 C 227.430 210.050, 227.425 188.901, 217.502 168.500 C 209.938 152.951, 199.950 142.820, 184.802 135.334 C 169.886 127.963, 150.856 125.921, 135.230 130.015 M 470.249 129.570 C 456.101 132.671, 441.025 142.101, 431.728 153.667 C 413.246 176.658, 409.967 205.874, 422.916 232.179 C 432.477 251.598, 451.038 265.512, 473.508 270.102 C 509.412 277.437, 545.024 255.407, 556.116 219 C 559.333 208.443, 559.347 191.805, 556.150 180.500 C 549.158 155.782, 529.221 136.323, 504.377 129.968 C 495.281 127.642, 479.869 127.463, 470.249 129.570 M 142.500 157.411 C 134.918 159.293, 128.059 163.244, 122.323 169.035 C 99.001 192.580, 109.467 232.231, 141.458 241.531 C 150.625 244.196, 162.688 243.205, 171.338 239.077 C 188.749 230.768, 199.003 211.861, 196.125 193.375 C 192.133 167.734, 167.492 151.208, 142.500 157.411 M 475.024 157.603 C 454.643 163.080, 440.228 185.474, 443.849 206.032 C 446.422 220.642, 455.499 232.779, 468.528 239.032 C 480.847 244.944, 496.916 244.236, 508.828 237.255 C 519.556 230.968, 528.228 218.183, 529.823 206.302 C 531.712 192.229, 527.728 179.805, 518.068 169.642 C 506.930 157.924, 490.712 153.388, 475.024 157.603 M 308.500 243.984 C 270.989 247.446, 236.278 267.820, 215.195 298.750 C 211.727 303.837, 208.737 308, 208.550 308 C 208.363 308, 204.923 306.601, 200.905 304.892 C 178.051 295.166, 148.908 292.956, 123.293 299.004 C 98.732 304.804, 74.055 319.743, 57.801 338.653 C 45.128 353.398, 38.121 365.488, 32.492 382.329 C 27.403 397.550, 25.999 407.513, 26.004 428.381 C 26.008 448.242, 26.635 450.749, 32.570 454.638 C 38.438 458.483, 48.734 455.887, 52.234 449.680 C 53.026 448.276, 53.698 440.206, 54.123 427 C 54.634 411.122, 55.243 404.776, 56.824 398.854 C 66.265 363.490, 93.137 336.313, 128.001 326.867 C 139.516 323.748, 167.059 323.451, 176.500 326.346 C 182.776 328.270, 198 333.967, 198 334.391 C 198 334.526, 197.354 336.856, 196.564 339.568 C 193.258 350.926, 192.890 360.028, 193.196 423 L 193.500 485.500 196.701 492.259 C 205.083 509.952, 223.391 519.965, 242.246 517.166 C 257.473 514.906, 269.824 505.807, 276.403 492 L 279.500 485.500 279.808 449 C 280.064 418.647, 279.837 410.816, 278.458 402.500 C 273.960 375.361, 261.975 352.104, 242.402 332.530 L 232.873 323.001 237.686 315.750 C 243.619 306.815, 255.382 294.835, 263.881 289.073 C 279.514 278.476, 296.395 272.971, 315.518 272.236 C 335.799 271.456, 353.234 275.649, 369.525 285.225 C 380.090 291.434, 396.355 306.917, 402.713 316.816 L 406.770 323.132 397.135 332.816 C 391.836 338.142, 385.140 345.945, 382.256 350.155 C 372.191 364.846, 364.181 384.402, 360.883 402.332 C 359.280 411.047, 358.521 468.898, 359.878 478.978 C 361.254 489.202, 364.670 496.449, 371.685 504.026 C 386.635 520.174, 412.782 522.082, 430.798 508.341 C 436.311 504.135, 442.818 494.411, 445.062 487.021 C 447.050 480.475, 447.098 478.459, 446.746 415.892 C 446.393 353.190, 446.325 351.279, 444.165 343.075 C 441.635 333.466, 441.186 334.289, 451 330.543 C 462.384 326.198, 469.184 324.825, 482 324.286 C 496.522 323.675, 505.247 324.805, 518.307 328.989 C 544.260 337.302, 568.864 360.843, 578.932 386.991 C 583.640 399.220, 585.061 407.885, 585.695 428.214 C 586.182 443.829, 586.579 447.423, 588.092 449.910 C 590.787 454.343, 594.549 456.385, 600.021 456.385 C 606.010 456.385, 611.273 452.732, 613.052 447.343 C 614.731 442.254, 613.654 406.987, 611.529 397.500 C 605.936 372.532, 595.317 352.542, 578.289 334.923 C 563.129 319.237, 544.987 307.734, 525.744 301.606 C 498.559 292.950, 468.383 293.679, 442.661 303.612 C 437.622 305.558, 432.823 307.364, 431.996 307.627 C 431.054 307.926, 429.789 306.873, 428.606 304.802 C 418.111 286.438, 397.079 267.076, 376.283 256.632 C 356.662 246.779, 330.704 241.936, 308.500 243.984 M 222.390 354.119 C 221.901 354.878, 221.376 382.950, 221.224 416.500 C 220.968 473.279, 221.072 477.741, 222.724 480.980 C 228.248 491.806, 244.720 491.806, 250.291 480.980 C 251.934 477.786, 252.051 474.621, 251.704 442.500 C 251.359 410.604, 251.134 406.765, 249.167 399.206 C 246.151 387.615, 241.833 377.951, 235.469 368.551 C 227.590 356.913, 223.499 352.398, 222.390 354.119 M 410.253 360.346 C 399.589 373.602, 392.692 388.487, 389.557 405.011 C 388.350 411.377, 388 420.441, 388.002 445.360 C 388.003 481.231, 388.171 482.236, 394.898 486.730 C 402.233 491.630, 413.292 488.788, 417.276 480.980 C 418.929 477.741, 419.032 473.270, 418.776 416.299 C 418.580 372.932, 418.175 354.774, 417.384 353.983 C 416.563 353.163, 414.678 354.845, 410.253 360.346" stroke="none" fill="currentcolor" fill-rule="evenodd"/></svg>