<svg preserveAspectRatio="none" width="100%" height="100%" overflow="visible" style="display: block;" viewBox="0 0 91.9884 180" fill="none" xmlns="http://www.w3.org/2000/svg">
<g id="Group">
<path id="Vector" d="M31.4493 179.997C23.4909 179.997 22.8766 179.113 22.6466 178.78C22.5377 178.623 22.4893 178.444 22.5044 178.272V177.121C13.8258 176.958 8.35177 173.262 5.26827 170.154C2.19991 167.06 0.865437 163.991 0.584019 163.286C0.0695981 162.777 0.00605201 162.075 0 161.99C0 161.975 0 161.963 0 161.948V159.572C0 159.514 0.00907801 159.46 0.024208 159.405C0.0847281 159.19 0.163404 159.018 0.229976 158.9L1.21343 121.755L2.19991 84.2672L4.12444 15.9454C4.1305 15.7184 4.26364 15.5156 4.46941 15.4157L5.67073 14.8406V10.5818C5.67073 9.70404 5.94912 8.65373 5.96123 8.60833C5.96728 8.58714 5.97333 8.56595 5.98241 8.54779C5.99754 8.50844 6.35764 7.58526 7.39858 6.12632C8.30638 4.85505 8.98723 4.37378 9.22024 4.23152C13.5807 0.538777 30.5717 0.0211879 31.298 0H87.0824V1.21074H31.3131C31.1557 1.21679 13.9257 1.7374 9.96766 5.188C9.92832 5.2213 9.88596 5.25156 9.84057 5.27275C9.84057 5.27275 9.25655 5.6057 8.38203 6.83157C7.53778 8.01507 7.18676 8.80204 7.12019 8.95641C7.0748 9.135 6.88113 9.94619 6.88113 10.5818V15.222C6.88113 15.455 6.74799 15.6669 6.53617 15.7668L5.32274 16.348L3.40425 84.2944L2.41778 121.782L1.4313 159.091C1.42827 159.215 1.38591 159.336 1.31026 159.439C1.31026 159.439 1.25579 159.52 1.20738 159.663V161.918C1.22251 162.03 1.28908 162.314 1.47366 162.459C1.56142 162.529 1.62496 162.62 1.6643 162.726C1.67641 162.759 2.91102 166.074 6.16397 169.339C10.5123 173.704 16.2133 175.914 23.1066 175.914C23.2669 175.914 23.4213 175.977 23.5332 176.092C23.6452 176.207 23.7118 176.359 23.7118 176.519V178.117C24.084 178.302 25.6212 178.786 31.4462 178.786C36.7145 178.786 38.3637 178.508 38.866 178.362V177.152C38.866 176.985 38.9356 176.825 39.0566 176.71C39.1777 176.595 39.3411 176.534 39.5075 176.546C39.7103 176.558 59.9179 177.757 81.7021 177.757H82.3285V178.968H81.7021C62.0603 178.968 43.6955 177.996 40.0764 177.793V178.535C40.1036 178.671 40.0915 178.813 40.034 178.947C39.8525 179.367 39.5801 180 31.4462 180L31.4493 179.997Z" fill="var(--fill-0, #878786)"/>
<path id="Vector_2" d="M78.6309 166.322C69.3743 166.322 35.8916 166.261 13.2692 165.423C12.8818 165.408 3.77054 165.041 0.814138 163.47L1.38303 162.402C4.09735 163.846 13.2238 164.212 13.3146 164.215C39.6257 165.19 80.6613 165.111 81.0728 165.111V166.322C81.0184 166.322 80.1499 166.322 78.6309 166.322Z" fill="var(--fill-0, #878786)"/>
<path id="Vector_3" d="M71.1897 163.722C62.4869 163.722 37.937 163.667 17.575 163.089C16.0771 163.071 2.77176 162.847 0.172421 160.71L0.941026 159.775C2.66282 161.188 11.8467 161.809 17.5992 161.878C42.6817 162.586 74.1189 162.508 74.4336 162.505V163.715C74.3791 163.715 73.2111 163.719 71.1897 163.719V163.722Z" fill="var(--fill-0, #878786)"/>
<path id="Vector_4" d="M3.4922 161.073L2.2818 161.027L5.15045 86.6125C5.0869 84.9205 5.7738 81.6787 8.83007 81.3458C12.1405 80.9886 68.282 80.8978 70.6695 80.8948V82.1055C70.0885 82.1055 12.2071 82.1993 8.96019 82.5504C6.25191 82.844 6.3548 86.4339 6.36085 86.5882C6.36085 86.6034 6.36085 86.6215 6.36085 86.6367L3.4922 161.076V161.073Z" fill="var(--fill-0, #878786)"/>
<path id="Vector_5" d="M81.0736 166.41C75.0549 166.41 70.1588 161.512 70.1588 155.492V81.2345C70.1588 75.2141 75.0549 70.3167 81.0736 70.3167C87.0924 70.3167 91.9884 75.2141 91.9884 81.2345V155.492C91.9884 161.512 87.0924 166.41 81.0736 166.41ZM81.0736 71.5244C75.7206 71.5244 71.3693 75.88 71.3693 81.2314V155.489C71.3693 160.843 75.7237 165.196 81.0736 165.196C86.4236 165.196 90.778 160.84 90.778 155.489V81.2314C90.778 75.877 86.4236 71.5244 81.0736 71.5244Z" fill="var(--fill-0, #878786)"/>
<path id="Vector_6" d="M70.3586 100.939C68.5369 99.8251 68.1375 95.7359 68.0982 95.2727C68.0982 95.2546 68.0982 95.2394 68.0982 95.2213V81.5884H69.3086V95.194C69.4417 96.7105 70.0136 99.3075 70.991 99.9068L70.3586 100.939Z" fill="var(--fill-0, #878786)"/>
<path id="Vector_7" d="M70.5832 151.342H42.6108C30.0559 151.342 29.723 140.097 29.723 139.986L29.9924 94.8614C29.9924 87.5274 36.1836 87.4426 36.2471 87.4426H68.6132V88.6534H36.2471C36.0444 88.6534 31.2028 88.7563 31.2028 94.8644L30.9334 139.979C30.9425 140.379 31.2633 150.131 42.6108 150.131H70.5832V151.342Z" fill="var(--fill-0, #878786)"/>
<path id="Vector_8" d="M69.7059 68.991C57.378 68.991 38.6894 68.7761 30.156 67.5715C16.8688 65.6979 14.9201 57.0714 14.7688 56.2692C14.5993 55.7456 13.1166 50.8603 10.723 35.1359C8.29012 19.1511 5.81787 15.6188 5.79366 15.5855L6.75896 14.8561C6.86487 14.9953 9.41579 18.4883 11.9183 34.9512C14.3845 51.163 15.9126 55.8818 15.9278 55.9272C15.9368 55.9575 15.9459 55.9878 15.9489 56.018C16.0095 56.3661 17.5951 64.5779 30.3194 66.3728C43.4795 68.2283 81.1321 67.7167 81.5104 67.7107L81.5285 68.9214C81.3923 68.9214 76.5175 68.988 69.6999 68.988L69.7059 68.991Z" fill="var(--fill-0, #878786)"/>
<path id="Vector_9" d="M81.3441 70.0901C34.2141 70.0901 27.1453 69.1639 26.0953 68.9126C14.427 66.8029 12.7113 57.5741 12.6961 57.4803C12.684 57.4288 11.1438 50.0342 8.65945 33.883C6.29917 18.5339 4.41094 16.4999 4.32924 16.4212C4.35345 16.4454 4.36555 16.4515 4.36555 16.4515L5.08877 15.4799C5.45794 15.7553 7.42787 17.9286 9.85473 33.6984C12.333 49.8103 13.8672 57.1806 13.8823 57.2533C13.9459 57.6195 15.5012 65.7647 26.3101 67.7231C26.4039 67.7412 26.3949 67.717 26.4524 67.7624C27.0152 67.8896 32.9613 68.8793 81.341 68.8793V70.0901H81.3441Z" fill="var(--fill-0, #878786)"/>
<path id="Vector_10" d="M7.0882 9.02825L5.99581 8.50461C6.36498 7.73579 7.48763 5.39302 21.7371 4.01581C28.6364 3.3499 35.3571 3.22883 35.4237 3.22883H85.2832V4.43957H35.4358C25.2503 4.61209 8.53765 6.00747 7.0882 9.02825Z" fill="var(--fill-0, #878786)"/>
<path id="Vector_11" d="M5.45504 18.8453L1.57723 160.366L2.78717 160.4L6.66499 18.8784L5.45504 18.8453Z" fill="var(--fill-0, #878786)"/>
<path id="Vector_12" d="M6.20908 84.4362C6.20908 84.4362 6.2 84.4362 6.19395 84.4362C5.86109 84.4302 5.5948 84.1517 5.60388 83.8188L6.94743 24.3808C6.95348 24.0478 7.23187 23.7724 7.56473 23.7905C7.89759 23.7966 8.16388 24.0751 8.1548 24.408L6.81126 83.846C6.80521 84.1759 6.53287 84.4393 6.20606 84.4393L6.20908 84.4362Z" fill="var(--fill-0, #878786)"/>
</g>
</svg>
