<svg preserveAspectRatio="none" width="100%" height="100%" overflow="visible" style="display: block;" viewBox="0 0 159.696 150" fill="none" xmlns="http://www.w3.org/2000/svg">
<g id="Group">
<g id="Group_2">
<path id="Vector" d="M54.4184 135.229L54.3629 73.333C54.3629 73.2977 54.4084 71.6832 53.3343 70.5733C52.6309 69.8443 51.5896 69.476 50.2357 69.476C50.0869 69.476 36.1596 69.2716 30.3205 70.8533L30.0583 69.8796C36.0361 68.2601 49.6684 68.4594 50.2458 68.467C51.8796 68.467 53.1679 68.9437 54.0705 69.8821C55.4395 71.3099 55.3739 73.2699 55.3714 73.3532L55.4294 135.227H54.4209L54.4184 135.229Z" fill="var(--fill-0, #878786)"/>
<path id="Vector_2" d="M55.1109 135.306L54.9445 73.3209V73.3058C54.9445 73.2906 55.0201 71.5324 53.8503 70.2989C53.0561 69.4639 51.8611 69.0401 50.2954 69.0401C50.1517 69.0401 36.7639 68.8862 30.7104 70.3115L28.948 132.402L27.9395 132.374L29.7221 69.5219L30.0876 69.4261C36.0781 67.8671 49.7205 68.0235 50.2979 68.0311C52.1485 68.0311 53.5957 68.5634 54.5865 69.6127C56.0035 71.1111 55.9606 73.1216 55.9505 73.3436L56.1169 135.301H55.1084L55.1109 135.306Z" fill="var(--fill-0, #878786)"/>
<path id="Vector_3" d="M157.914 132.67L154.737 15.3321C154.737 14.1087 151.371 11.2658 141.367 10.6957C131.852 10.1508 107.666 9.43942 107.497 9.4369H75.5879C71.6674 9.4369 68.3469 10.3955 68.3142 10.4056C68.2637 10.4207 62.9061 12.0604 57.314 17.0021C51.732 21.9337 48.8603 31.2042 48.8326 31.2975L48.82 31.3354C48.7872 31.4186 45.5701 39.622 43.6666 46.3976C41.7076 53.37 37.8955 56.1524 37.7341 56.2659C37.6332 56.3441 34.8372 58.5161 32.6841 59.5478C31.2545 60.2314 30.8662 60.6729 30.7805 60.794L30.5435 69.7794L30.3368 69.7743L29.8956 70.3041L29.5275 69.9963L29.7771 60.6275C29.8098 60.3096 30.1754 59.6285 32.2479 58.6372C34.3002 57.6534 37.1013 55.4789 37.1315 55.4562C37.1845 55.4184 40.8402 52.7268 42.6933 46.1227C44.5666 39.453 47.698 31.4236 47.872 30.9822C48.0585 30.3768 50.9252 21.2955 56.6459 16.2428C62.417 11.1447 67.8023 9.50248 68.0292 9.4369C68.1704 9.39401 71.5186 8.42534 75.5904 8.42534H107.504C107.623 8.42534 131.804 9.13419 141.425 9.68663C150.827 10.2239 155.746 12.9256 155.746 15.317L158.922 132.642L157.914 132.67Z" fill="var(--fill-0, #878786)"/>
<path id="Vector_4" d="M30.776 60.7562C30.776 60.7562 30.781 60.7386 30.781 60.7032L29.7725 60.6604C29.7826 60.3879 30.0373 59.3688 32.8207 57.7493C35.4832 56.1979 37.4598 53.9957 37.48 53.973C37.5254 53.9251 40.6063 50.7012 42.3182 44.7253C44.0755 38.5904 45.5731 34.582 45.5882 34.5416C45.7345 34.1078 49.3348 23.4902 53.0889 18.8538C57.9927 12.7945 64.1698 9.38906 71.4486 8.73067L71.5394 9.73465C64.5429 10.3678 58.6004 13.6497 53.873 19.4894C50.2324 23.9872 46.5766 34.7737 46.5388 34.8822C46.5186 34.9377 45.0361 38.9133 43.2889 45.0053C41.5014 51.2411 38.3523 54.5255 38.2187 54.6617C38.1481 54.7399 36.1286 56.9925 33.33 58.6221C30.9928 59.9818 30.7785 60.7486 30.776 60.7562Z" fill="var(--fill-0, #878786)"/>
<path id="Vector_5" d="M32.1462 59.1266L31.1377 59.1014L32.4235 9.50506C32.4285 9.41677 32.5495 7.70142 34.68 5.52191C36.7247 3.42818 39.672 2.66636 39.9418 2.59825C40.204 2.52005 43.169 1.6649 50.1024 1.09732C55.107 0.688662 66.5988 0 87.3335 0C105.05 0 114.691 0.0605418 114.787 0.0605418C114.974 0.0605418 133.477 0.259825 145.302 1.92472C145.672 1.97517 154.426 3.22637 154.426 9.08126V13.4277H153.418V9.08126C153.418 4.10675 145.246 2.93628 145.163 2.92618C133.404 1.27138 114.964 1.07462 114.78 1.07209C114.686 1.07209 105.048 1.01155 87.3335 1.01155C66.6366 1.01155 55.1751 1.69517 50.1856 2.10383C43.1992 2.67645 40.2519 3.55935 40.2242 3.56692L40.1939 3.57449C40.1662 3.58205 37.2945 4.28837 35.4036 6.22571C33.5656 8.10755 33.4345 9.53533 33.4345 9.55046L32.1487 59.1266H32.1462Z" fill="var(--fill-0, #878786)"/>
<path id="Vector_6" d="M156.946 64.1996L156.222 63.4958L157.2 62.4892C157.553 62.1563 157.548 61.5029 157.548 61.4954L156.598 24.5674C156.58 23.6391 155.431 23.4827 155.383 23.4777L155.501 22.4762C156.217 22.5594 157.579 23.0993 157.606 24.5447L158.557 61.4651C158.559 61.5736 158.572 62.5775 157.909 63.2057L156.946 64.197V64.1996Z" fill="var(--fill-0, #878786)"/>
<path id="Vector_7" d="M61.056 14.4452L60.0475 14.4512L60.7632 135.132L61.7717 135.126L61.056 14.4452Z" fill="var(--fill-0, #878786)"/>
<path id="Vector_8" d="M66.8312 11.1678L65.8227 11.1777L67.0358 135.353L68.0442 135.343L66.8312 11.1678Z" fill="var(--fill-0, #878786)"/>
<path id="Vector_9" d="M73.9243 8.99902L72.9158 9.00871L74.1276 135.311L75.1361 135.301L73.9243 8.99902Z" fill="var(--fill-0, #878786)"/>
<path id="Vector_10" d="M81.1003 9.06501L80.0919 9.07523L81.3685 135.253L82.377 135.243L81.1003 9.06501Z" fill="var(--fill-0, #878786)"/>
<path id="Vector_11" d="M89.035 9.00887L88.0266 9.02138L89.59 135.249L90.5984 135.236L89.035 9.00887Z" fill="var(--fill-0, #878786)"/>
<path id="Vector_12" d="M96.6889 8.99655L95.6805 9.00871L97.2005 135.285L98.2089 135.272L96.6889 8.99655Z" fill="var(--fill-0, #878786)"/>
<path id="Vector_13" d="M104.487 8.9789L103.479 8.9914L105.045 135.491L106.054 135.479L104.487 8.9789Z" fill="var(--fill-0, #878786)"/>
<path id="Vector_14" d="M111.968 9.62712L110.959 9.6391L112.449 135.234L113.458 135.222L111.968 9.62712Z" fill="var(--fill-0, #878786)"/>
<path id="Vector_15" d="M118.544 9.19842L117.536 9.21339L119.406 135.348L120.414 135.333L118.544 9.19842Z" fill="var(--fill-0, #878786)"/>
<path id="Vector_16" d="M125.014 9.56864L124.006 9.58378L125.89 135.133L126.898 135.118L125.014 9.56864Z" fill="var(--fill-0, #878786)"/>
<path id="Vector_17" d="M130.698 9.68266L129.689 9.69904L131.723 135.029L132.731 135.013L130.698 9.68266Z" fill="var(--fill-0, #878786)"/>
<path id="Vector_18" d="M136.039 9.92136L135.03 9.93809L137.101 134.879L138.109 134.862L136.039 9.92136Z" fill="var(--fill-0, #878786)"/>
<path id="Vector_19" d="M140.691 10.069L139.683 10.0862L141.812 134.61L142.82 134.593L140.691 10.069Z" fill="var(--fill-0, #878786)"/>
<path id="Vector_20" d="M144.481 10.8215L143.472 10.8414L145.908 134.383L146.916 134.363L144.481 10.8215Z" fill="var(--fill-0, #878786)"/>
<path id="Vector_21" d="M147.919 10.9438L146.91 10.9662L149.64 134.166L150.649 134.144L147.919 10.9438Z" fill="var(--fill-0, #878786)"/>
<path id="Vector_22" d="M151.065 11.8821L150.056 11.9009L152.332 133.788L153.34 133.769L151.065 11.8821Z" fill="var(--fill-0, #878786)"/>
<path id="Vector_23" d="M153.954 12.749L152.945 12.7703L155.49 133.322L156.498 133.301L153.954 12.749Z" fill="var(--fill-0, #878786)"/>
<path id="Vector_24" d="M55.4104 18.8602L54.402 18.8703L54.9437 73.3526L55.9522 73.3426L55.4104 18.8602Z" fill="var(--fill-0, #878786)"/>
<path id="Vector_25" d="M49.3647 27.2136L49.2639 68.4727L50.2724 68.4752L50.3731 27.2161L49.3647 27.2136Z" fill="var(--fill-0, #878786)"/>
<path id="Vector_26" d="M44.5858 40.3217L44.2806 68.5427L45.289 68.5536L45.5943 40.3327L44.5858 40.3217Z" fill="var(--fill-0, #878786)"/>
<path id="Vector_27" d="M39.9174 52.4243L39.7586 68.684L40.767 68.6939L40.9259 52.4341L39.9174 52.4243Z" fill="var(--fill-0, #878786)"/>
<path id="Vector_28" d="M37.1289 68.9744L36.1204 68.9542C36.201 64.6633 36.3573 56.5053 36.3573 56.3413H37.3658C37.3658 56.4649 37.1516 67.6929 37.1289 68.9744Z" fill="var(--fill-0, #878786)"/>
<path id="Vector_29" d="M33.7395 58.0744L33.5009 69.1913L34.5092 69.213L34.7477 58.096L33.7395 58.0744Z" fill="var(--fill-0, #878786)"/>
<path id="Vector_30" d="M31.9675 59.0861L31.7392 69.4716L32.7474 69.4938L32.9757 59.1083L31.9675 59.0861Z" fill="var(--fill-0, #878786)"/>
<path id="Vector_31" d="M30.927 59.6937L30.6888 69.6626L31.697 69.6867L31.9353 59.7178L30.927 59.6937Z" fill="var(--fill-0, #878786)"/>
<path id="Vector_32" d="M30.1013 60.1726L29.9413 69.8251L30.9496 69.8419L31.1096 60.1893L30.1013 60.1726Z" fill="var(--fill-0, #878786)"/>
<path id="Vector_33" d="M3.35857 133.388H2.2366L2.14584 133.351C1.9038 133.252 1.26845 132.806 0.567544 130.778C-0.15605 128.679 0.015416 125.074 0.0229797 124.92L3.09887 69.7969C3.12409 69.0578 3.44932 62.4966 6.56305 62.4966H14.0234C14.1066 62.4966 16.4261 62.4789 17.0993 66.0408C17.1144 66.1316 17.3842 67.905 17.4296 69.5749C17.4598 70.6395 17.954 70.811 18.07 70.8362H30.0962V71.8452H17.9868C17.4649 71.7973 16.4665 71.2726 16.4211 69.6027C16.3757 67.9933 16.1059 66.2275 16.1034 66.2098C15.6017 63.5485 14.0915 63.5056 14.0259 63.5031H6.56052C4.74271 63.5031 4.16283 68.1976 4.10232 69.8398L1.0239 124.971C1.0239 125.003 0.852444 128.53 1.51301 130.445C1.96179 131.746 2.34502 132.226 2.4963 132.374H3.11399L3.30059 132.281L8.35564 132.289C8.37833 132.291 10.6248 132.642 11.7971 131.365C12.8258 130.248 13.1309 127.713 13.1637 126.832L15.4428 88.7162L15.4479 88.691C15.6899 87.185 16.8421 86.736 17.4195 86.7082H29.6702V87.7173H17.4623C17.3363 87.7299 16.6152 87.8434 16.4463 88.8272L14.1696 126.88C14.1646 127.014 14.0259 130.432 12.5384 132.049C11.0811 133.633 8.60777 133.346 8.23463 133.29H3.53757L3.351 133.383L3.35857 133.388Z" fill="var(--fill-0, #878786)"/>
<path id="Vector_34" d="M1.97904 133.237C0.907511 132.145 1.10164 126.85 1.18484 125.253L3.5674 82.0897C3.5674 77.7054 4.3263 68.1726 4.33386 68.0768C4.79777 63.4252 5.85921 62.6507 6.29287 62.5322L6.55505 63.5059C6.60044 63.4933 6.62313 63.4806 6.62313 63.4806C6.61305 63.4857 5.74827 64.0583 5.33731 68.1676C5.32974 68.2534 4.57589 77.7685 4.57589 82.1048V82.1326L2.19333 125.309C2.03198 128.369 2.17821 132.001 2.69758 132.531L1.97904 133.237Z" fill="var(--fill-0, #878786)"/>
<path id="Vector_35" d="M2.79205 133.106C2.76936 133.061 2.23736 131.959 2.20711 129.799C2.17685 127.736 2.89792 114.381 2.92818 113.814L5.5049 68.5386C5.66878 65.7764 6.15285 62.4844 7.537 62.4844V63.4934C7.55969 63.4934 7.57736 63.4859 7.5824 63.4833C7.16135 63.7179 6.65963 66.1068 6.5134 68.5941L3.93667 113.867C3.92911 114.003 3.18787 127.753 3.21813 129.782C3.24586 131.686 3.69717 132.65 3.70221 132.66L2.7971 133.104L2.79205 133.106Z" fill="var(--fill-0, #878786)"/>
<path id="Vector_36" d="M17.1917 87.6519C16.8211 87.4299 15.6109 86.1788 15.6109 79.3174C15.6109 72.0952 17.5976 70.9878 17.8245 70.8844L18.2405 71.8026L18.2632 71.7925C18.2456 71.8026 16.6194 72.8192 16.6194 79.3174C16.6194 85.8155 17.7363 86.8018 17.7464 86.8119C17.7211 86.7892 17.706 86.7842 17.706 86.7842L17.1892 87.6519H17.1917Z" fill="var(--fill-0, #878786)"/>
<path id="Vector_37" d="M15.6698 89.1931C15.3748 88.9938 13.9049 87.5661 13.9049 79.1356C13.9049 70.7052 16.4564 69.4641 16.7489 69.3834L17.0136 70.3571C17.0136 70.3571 14.9134 71.2475 14.9134 79.1356C14.9134 87.0237 16.2522 88.3682 16.2673 88.3809C16.2471 88.3632 16.237 88.3582 16.237 88.3582L15.6698 89.1931Z" fill="var(--fill-0, #878786)"/>
<path id="Vector_38" d="M11.1789 132.829C11.1058 132.829 11.0327 132.821 10.957 132.808C10.3822 132.695 9.95862 132.168 9.69641 131.237C9.02324 128.84 9.4367 123.962 9.45435 123.755L11.4915 88.7492C11.5344 87.8865 12.5176 67.4461 13.0118 64.7898C13.2564 63.4831 13.6472 62.7995 14.2472 62.6431C14.7086 62.522 15.1196 62.7743 15.3339 63.0291L14.5624 63.6774L14.9481 63.3519L14.5674 63.6824C14.5473 63.6622 14.517 63.637 14.4943 63.6269C14.4313 63.6774 14.1993 63.9296 14.0052 64.974C13.5236 67.5646 12.5101 88.5903 12.5 88.8022L10.4628 123.828C10.4578 123.891 10.0469 128.747 10.6696 130.964C10.836 131.557 11.0326 131.794 11.1511 131.817C11.3125 131.852 11.6252 131.595 11.779 131.401L12.5731 132.021C12.5025 132.11 11.9227 132.829 11.1764 132.829H11.1789Z" fill="var(--fill-0, #878786)"/>
<path id="Vector_39" d="M32.424 9.54533C32.4013 9.15938 32.4644 5.72868 41.5963 4.50271C49.3037 3.46845 62.0586 2.28032 92.5479 2.28032C120.94 2.28032 133.427 2.99673 146.54 4.32108C147.327 4.39928 154.25 5.18633 154.384 8.68766L153.375 8.72549C153.29 6.49554 148.338 5.51426 146.437 5.32507C133.357 4.00324 120.894 3.28935 92.5454 3.28935C62.1166 3.28935 49.4046 4.47244 41.7274 5.50417C33.5082 6.60906 33.4275 9.47218 33.43 9.49992L32.4215 9.54533H32.424Z" fill="var(--fill-0, #878786)"/>
</g>
<path id="Vector_40" d="M55.2846 135.883C43.5331 135.883 29.2478 135.316 27.9317 132.617C27.73 132.203 27.8384 131.827 27.9922 131.63L28.7863 132.251C28.8267 132.198 28.8317 132.168 28.8292 132.153C28.8494 132.264 29.6335 134.874 55.282 134.874H116.689C117.052 134.869 153.593 134.4 158.211 131.943L158.685 132.834C153.852 135.402 118.209 135.863 116.697 135.881H55.2846V135.883Z" fill="var(--fill-0, #878786)"/>
<path id="Vector_41" d="M60.9212 138.222C57.989 138.222 54.7316 138.194 51.4514 138.118C29.9352 137.609 28.4023 135.45 27.8981 134.738L27.7947 134.592L27.9359 132.359L28.9419 132.423L28.8259 134.277C29.7361 135.207 33.9944 136.693 51.4716 137.107C61.9701 137.357 72.2315 137.082 72.3349 137.079H114.482C149.26 137.079 157.288 134.655 158.687 134.087V133.086L158.614 133.119L158.211 132.193L159.696 131.545V134.69L159.456 134.839C159.242 134.973 153.728 138.091 114.482 138.091H72.35C72.2895 138.091 67.3983 138.224 60.9237 138.224L60.9212 138.222Z" fill="var(--fill-0, #878786)"/>
<path id="Vector_42" d="M94.7652 148.189C91.3591 148.189 82.2902 148.134 60.9101 147.733C48.3997 147.498 39.2174 145.397 33.6127 141.489C29.3241 138.497 28.84 135.541 28.8223 135.417L29.8207 135.266C29.8258 135.294 30.3023 137.995 34.3085 140.743C38.0576 143.313 45.7197 146.439 60.9303 146.724C90.4766 147.279 96.4873 147.175 96.5452 147.173C96.9209 147.168 134.071 146.595 145.23 145.046C156.067 143.543 158.605 134.656 158.709 134.277L159.682 134.54C159.654 134.638 156.883 144.448 145.369 146.045C134.149 147.601 96.9386 148.174 96.5629 148.179C96.5478 148.179 96.0738 148.187 94.7678 148.187L94.7652 148.189Z" fill="var(--fill-0, #878786)"/>
<path id="Vector_43" d="M53.2578 150C48.3238 150 47.0607 148.925 46.8968 148.761L46.748 148.613V145.994H47.7565V148.141C48.3767 148.486 51.1602 149.612 59.7475 148.522V147.228H60.756V149.407L60.3173 149.465C57.3826 149.854 55.0731 150 53.2578 150Z" fill="var(--fill-0, #878786)"/>
<path id="Vector_44" d="M133.484 149.665C130.068 149.665 127.942 149.097 127.799 149.06L127.428 148.959V146.893H128.437V148.174C129.785 148.459 134.694 149.276 141.098 147.733V146.111H142.107V148.522L141.726 148.618C138.552 149.423 135.738 149.67 133.484 149.67V149.665Z" fill="var(--fill-0, #878786)"/>
</g>
</svg>
