<svg preserveAspectRatio="none" width="100%" height="100%" overflow="visible" style="display: block;" viewBox="0 0 24 24.001" fill="none" xmlns="http://www.w3.org/2000/svg">
<g id="busket">
<path id="Union" d="M12.1549 0C14.9841 8.31374e-05 17.2066 2.38505 17.2066 5.42969V5.73242H20.1842C20.9419 5.73245 21.599 6.39234 21.5992 7.2041V7.30566L20.3355 20.8555C20.2343 22.6314 18.7186 24.001 16.6979 24.001H7.25059C5.1793 24.001 3.71343 22.6821 3.6627 20.9063L2.4 7.2041V7.10254C2.40022 6.34163 3.00627 5.73257 3.86484 5.73242H7.10215V5.42969C7.10221 2.38499 9.32562 0 12.1549 0ZM5.6334 20.7539V20.8555C5.63367 21.6164 6.44208 21.9717 7.1998 21.9717H16.6471C17.4048 21.9717 18.2132 21.6164 18.2135 20.8047V20.7031L19.4264 7.7627H16.2174C16.2106 7.76284 16.2037 7.76367 16.1969 7.76367C16.1901 7.76367 16.1831 7.76283 16.1764 7.7627H8.1334C8.12657 7.76283 8.11975 7.76367 8.11289 7.76367C8.10603 7.76367 8.09921 7.76283 8.09238 7.7627H4.42051L5.6334 20.7539ZM12.1549 2.03027C10.4371 2.03027 9.12369 3.5014 9.12363 5.42969V5.73242H15.1861V5.42969C15.1861 3.50146 13.8726 2.03036 12.1549 2.03027Z" fill="var(--fill-0, black)"/>
</g>
</svg>
