<svg preserveAspectRatio="none" width="100%" height="100%" overflow="visible" style="display: block;" viewBox="0 0 149.447 19.0365" fill="none" xmlns="http://www.w3.org/2000/svg">
<g id="Group 13">
<path id="Vector" d="M50.8056 5.47994C50.8056 4.9449 50.404 4.51367 49.9057 4.51367C49.4074 4.51367 49.0058 4.9449 49.0058 5.47994V11.589C49.0058 13.0903 47.868 14.3121 46.4698 14.3121C45.0717 14.3121 43.9338 13.0903 43.9338 11.589V5.47994C43.9338 4.9449 43.5322 4.51367 43.0339 4.51367C42.5356 4.51367 42.134 4.9449 42.134 5.47994V11.589C42.134 14.1604 44.0825 16.2526 46.4773 16.2526C48.872 16.2526 50.8205 14.1604 50.8205 11.589V5.47994H50.8056Z" fill="var(--fill-0, black)"/>
<path id="Vector_2" d="M82.113 5.47994C82.113 4.9449 81.7114 4.51367 81.2131 4.51367C80.7148 4.51367 80.3132 4.9449 80.3132 5.47994V9.1214H75.2412V5.47994C75.2412 4.9449 74.8396 4.51367 74.3413 4.51367C73.843 4.51367 73.4414 4.9449 73.4414 5.47994V14.7034C73.4414 15.2384 73.843 15.6696 74.3413 15.6696C74.8396 15.6696 75.2412 15.2384 75.2412 14.7034V11.0619H80.3132V14.7034C80.3132 15.2384 80.7148 15.6696 81.2131 15.6696C81.7114 15.6696 82.113 15.2384 82.113 14.7034V5.47994Z" fill="var(--fill-0, black)"/>
<path id="Vector_3" d="M66.1915 14.0885L63.2018 10.0877L66.1915 6.08685C66.3179 5.91915 66.3923 5.71152 66.3923 5.47994C66.3923 4.9449 65.9907 4.51367 65.4924 4.51367C65.2098 4.51367 64.9569 4.65741 64.7933 4.88101L62.0565 8.54643L59.3197 4.88101C59.156 4.6654 58.9032 4.51367 58.6206 4.51367C58.1223 4.51367 57.7207 4.9449 57.7207 5.47994C57.7207 5.71152 57.7951 5.91915 57.9215 6.08685L60.9112 10.0956L57.9215 14.0965C57.7951 14.2642 57.7207 14.4718 57.7207 14.7034C57.7207 15.2384 58.1223 15.6696 58.6206 15.6696C58.9032 15.6696 59.156 15.5259 59.3197 15.3023L62.0565 11.6369L64.7933 15.3023C64.9569 15.5179 65.2098 15.6696 65.4924 15.6696C65.9907 15.6696 66.3923 15.2384 66.3923 14.7034C66.3923 14.4718 66.3179 14.2642 66.1915 14.0965V14.0885Z" fill="var(--fill-0, black)"/>
<path id="Vector_4" d="M94.315 16.1563C91.2138 16.1563 88.6926 13.4492 88.6926 10.1192C88.6926 6.78917 91.2138 4.08203 94.315 4.08203C97.4162 4.08203 99.9374 6.78917 99.9374 10.1192C99.9374 13.4492 97.4162 16.1563 94.315 16.1563ZM94.315 6.01456C92.2103 6.01456 90.4998 7.85126 90.4998 10.1112C90.4998 12.3711 92.2103 14.2078 94.315 14.2078C96.4197 14.2078 98.1302 12.3711 98.1302 10.1112C98.1302 7.85126 96.4197 6.01456 94.315 6.01456Z" fill="var(--fill-0, black)"/>
<path id="Vector_5" d="M34.6635 13.7291H30.1567V5.47994C30.1567 4.9449 29.7551 4.51367 29.2568 4.51367C28.7585 4.51367 28.3569 4.9449 28.3569 5.47994V14.7034C28.3569 15.2384 28.7585 15.6696 29.2568 15.6696H34.6635C35.1618 15.6696 35.5634 15.2384 35.5634 14.7034C35.5634 14.1683 35.1618 13.7371 34.6635 13.7371V13.7291Z" fill="var(--fill-0, black)"/>
<path id="Vector_6" d="M116.835 5.47994C116.835 4.9449 116.433 4.51367 115.935 4.51367C115.652 4.51367 115.399 4.65741 115.236 4.88101L111.688 9.63248L108.141 4.88101C107.977 4.6654 107.724 4.52166 107.442 4.52166C106.943 4.52166 106.542 4.95288 106.542 5.48792V14.7114C106.542 15.2464 106.943 15.6776 107.442 15.6776C107.94 15.6776 108.342 15.2464 108.342 14.7114V8.25096L110.982 11.7966C111.145 12.0122 111.398 12.1639 111.681 12.1639C111.963 12.1639 112.216 12.0202 112.38 11.7966L115.02 8.25895V14.7193C115.02 15.2544 115.422 15.6856 115.92 15.6856C116.418 15.6856 116.82 15.2544 116.82 14.7193V5.47994H116.835Z" fill="var(--fill-0, black)"/>
<path id="Vector_7" d="M134.683 5.47994C134.683 4.9449 134.282 4.51367 133.783 4.51367C133.501 4.51367 133.248 4.65741 133.084 4.88101L129.537 9.63248L125.989 4.88101C125.826 4.6654 125.573 4.52166 125.29 4.52166C124.792 4.52166 124.39 4.95288 124.39 5.48792V14.7114C124.39 15.2464 124.792 15.6776 125.29 15.6776C125.789 15.6776 126.19 15.2464 126.19 14.7114V8.25096L128.83 11.7966C128.994 12.0122 129.247 12.1639 129.529 12.1639C129.812 12.1639 130.065 12.0202 130.228 11.7966L132.869 8.25895V14.7193C132.869 15.2544 133.27 15.6856 133.768 15.6856C134.267 15.6856 134.668 15.2544 134.668 14.7193V5.47994H134.683Z" fill="var(--fill-0, black)"/>
<path id="Vector_8" d="M148.547 13.729H144.04V10.9819H147.64C148.138 10.9819 148.539 10.5507 148.539 10.0156C148.539 9.48058 148.138 9.04935 147.64 9.04935H144.04V6.45401H148.547C149.045 6.45401 149.447 6.02279 149.447 5.48775C149.447 4.95271 149.045 4.52148 148.547 4.52148H143.14C142.642 4.52148 142.24 4.95271 142.24 5.49574V14.7192C142.24 15.2542 142.642 15.6854 143.14 15.6854H148.547C149.045 15.6854 149.447 15.2542 149.447 14.7192C149.447 14.1841 149.045 13.7529 148.547 13.7529V13.729Z" fill="var(--fill-0, black)"/>
<path id="Vector_9" d="M148.048 1.63736L145.229 0.16773C145.08 0.0638971 144.909 0 144.716 0C144.217 0 143.816 0.431306 143.816 0.966444C143.816 1.40574 144.091 1.77315 144.463 1.89295L144.537 1.91691L147.661 2.76355C147.706 2.77154 147.758 2.78751 147.81 2.78751C148.123 2.78751 148.375 2.51595 148.375 2.18049C148.375 1.93289 148.242 1.72522 148.048 1.62938V1.63736Z" fill="var(--fill-0, black)"/>
<path id="Vector_10" d="M16.9498 18.4575C16.9498 18.4575 13.737 15.1514 11.7216 11.6457C11.7216 11.6457 9.43844 8.20387 8.85091 1.91117C8.85091 1.91117 8.85091 1.91117 8.85091 1.8952C8.8286 1.67161 8.70217 1.50391 8.55343 1.50391C8.40469 1.50391 8.27826 1.67161 8.25595 1.8952C8.25595 1.90319 8.25595 1.91117 8.25595 1.91117C7.66843 8.20387 5.37782 11.6377 5.37782 11.6377C3.36983 15.1354 0.164477 18.4335 0.164477 18.4335C0.164477 18.4335 0.164477 18.4335 0.15704 18.4415C0.000862813 18.6012 -0.0437593 18.8088 0.0454849 18.9366C0.127292 19.0484 0.290906 19.0564 0.454521 18.9765C0.454521 18.9765 0.469395 18.9765 0.476832 18.9765C0.476832 18.9765 4.70849 16.2055 8.54599 16.1975C12.3835 16.2055 16.578 18.9526 16.578 18.9526C16.578 18.9526 16.5928 18.9526 16.6077 18.9606C16.7788 19.0644 16.9647 19.0644 17.0539 18.9446C17.1432 18.8168 17.0986 18.6092 16.9498 18.4575Z" fill="var(--fill-0, black)"/>
</g>
</svg>
