<svg preserveAspectRatio="none" width="100%" height="100%" overflow="visible" style="display: block;" viewBox="0 0 165 20.5994" fill="none" xmlns="http://www.w3.org/2000/svg">
<g id="logo">
<path id="Vector" d="M56.0925 5.93016C56.0925 5.35113 55.6491 4.88444 55.0989 4.88444C54.5488 4.88444 54.1053 5.35113 54.1053 5.93016V12.5415C54.1053 14.1663 52.849 15.4886 51.3052 15.4886C49.7615 15.4886 48.5052 14.1663 48.5052 12.5415V5.93016C48.5052 5.35113 48.0617 4.88444 47.5116 4.88444C46.9614 4.88444 46.518 5.35113 46.518 5.93016V12.5415C46.518 15.3244 48.6694 17.5887 51.3135 17.5887C53.9575 17.5887 56.1089 15.3244 56.1089 12.5415V5.93016H56.0925Z" fill="var(--fill-0, white)"/>
<path id="Vector_2" d="M90.6469 5.92964C90.6469 5.3506 90.2035 4.88392 89.6533 4.88392C89.1031 4.88392 88.6597 5.3506 88.6597 5.92964V9.87054H83.0596V5.92964C83.0596 5.3506 82.6161 4.88392 82.066 4.88392C81.5158 4.88392 81.0724 5.3506 81.0724 5.92964V15.9115C81.0724 16.4906 81.5158 16.9573 82.066 16.9573C82.6161 16.9573 83.0596 16.4906 83.0596 15.9115V11.9706H88.6597V15.9115C88.6597 16.4906 89.1031 16.9573 89.6533 16.9573C90.2035 16.9573 90.6469 16.4906 90.6469 15.9115V5.92964Z" fill="var(--fill-0, white)"/>
<path id="Vector_3" d="M73.0654 15.2466L69.7644 10.9168L73.0654 6.58698C73.205 6.40549 73.2871 6.18079 73.2871 5.93016C73.2871 5.35113 72.8437 4.88444 72.2935 4.88444C71.9815 4.88444 71.7023 5.04 71.5216 5.28199L68.4998 9.24882L65.478 5.28199C65.2974 5.04865 65.0182 4.88444 64.7062 4.88444C64.156 4.88444 63.7126 5.35113 63.7126 5.93016C63.7126 6.18079 63.7947 6.40549 63.9343 6.58698L67.2353 10.9254L63.9343 15.2552C63.7947 15.4367 63.7126 15.6614 63.7126 15.9121C63.7126 16.4911 64.156 16.9578 64.7062 16.9578C65.0182 16.9578 65.2974 16.8022 65.478 16.5602L68.4998 12.5934L71.5216 16.5602C71.7023 16.7936 71.9815 16.9578 72.2935 16.9578C72.8437 16.9578 73.2871 16.4911 73.2871 15.9121C73.2871 15.6614 73.205 15.4367 73.0654 15.2552V15.2466Z" fill="var(--fill-0, white)"/>
<path id="Vector_4" d="M104.13 17.4844C100.706 17.4844 97.9221 14.5546 97.9221 10.9508C97.9221 7.34692 100.706 4.41717 104.13 4.41717C107.554 4.41717 110.338 7.34692 110.338 10.9508C110.338 14.5546 107.554 17.4844 104.13 17.4844ZM104.13 6.50861C101.806 6.50861 99.9174 8.49635 99.9174 10.9421C99.9174 13.3879 101.806 15.3756 104.13 15.3756C106.454 15.3756 108.342 13.3879 108.342 10.9421C108.342 8.49635 106.454 6.50861 104.13 6.50861Z" fill="var(--fill-0, white)"/>
<path id="Vector_5" d="M38.2771 14.8577H33.301V5.93016C33.301 5.35113 32.8575 4.88444 32.3074 4.88444C31.7572 4.88444 31.3138 5.35113 31.3138 5.93016V15.9121C31.3138 16.4911 31.7572 16.9578 32.3074 16.9578H38.2771C38.8272 16.9578 39.2706 16.4911 39.2706 15.9121C39.2706 15.333 38.8272 14.8663 38.2771 14.8663V14.8577Z" fill="var(--fill-0, white)"/>
<path id="Vector_6" d="M129.003 5.93016C129.003 5.35113 128.56 4.88444 128.01 4.88444C127.698 4.88444 127.418 5.04 127.238 5.28199L123.321 10.4242L119.404 5.28199C119.223 5.04865 118.944 4.89308 118.632 4.89308C118.082 4.89308 117.639 5.35977 117.639 5.93881V15.9207C117.639 16.4997 118.082 16.9664 118.632 16.9664C119.182 16.9664 119.626 16.4997 119.626 15.9207V8.92905L122.541 12.7662C122.722 12.9996 123.001 13.1638 123.313 13.1638C123.625 13.1638 123.904 13.0082 124.085 12.7662L127 8.93769V15.9293C127 16.5084 127.443 16.9751 127.993 16.9751C128.543 16.9751 128.987 16.5084 128.987 15.9293V5.93016H129.003Z" fill="var(--fill-0, white)"/>
<path id="Vector_7" d="M148.713 5.93016C148.713 5.35113 148.269 4.88444 147.719 4.88444C147.407 4.88444 147.128 5.04 146.947 5.28199L143.03 10.4242L139.114 5.28199C138.933 5.04865 138.654 4.89308 138.342 4.89308C137.792 4.89308 137.348 5.35977 137.348 5.93881V15.9207C137.348 16.4997 137.792 16.9664 138.342 16.9664C138.892 16.9664 139.335 16.4997 139.335 15.9207V8.92905L142.25 12.7662C142.431 12.9996 142.71 13.1638 143.022 13.1638C143.334 13.1638 143.613 13.0082 143.794 12.7662L146.709 8.93769V15.9293C146.709 16.5084 147.153 16.9751 147.703 16.9751C148.253 16.9751 148.696 16.5084 148.696 15.9293V5.93016H148.713Z" fill="var(--fill-0, white)"/>
<path id="Vector_8" d="M164.006 14.8559H159.03V11.8829H163.005C163.555 11.8829 163.998 11.4162 163.998 10.8372C163.998 10.2581 163.555 9.79145 163.005 9.79145H159.03V6.9827H164.006C164.557 6.9827 165 6.51601 165 5.93697C165 5.35794 164.557 4.89125 164.006 4.89125H158.037C157.487 4.89125 157.043 5.35794 157.043 5.94562V15.9275C157.043 16.5065 157.487 16.9732 158.037 16.9732H164.006C164.557 16.9732 165 16.5065 165 15.9275C165 15.3485 164.557 14.8818 164.006 14.8818V14.8559Z" fill="var(--fill-0, white)"/>
<path id="Vector_9" d="M163.476 1.77175L160.364 0.181557C160.2 0.0692071 160.011 6.84227e-05 159.797 6.84227e-05C159.247 6.84227e-05 158.804 0.466754 158.804 1.04579C158.804 1.52112 159.107 1.91867 159.518 2.0483L159.6 2.07423L163.049 2.99031C163.098 2.99896 163.156 3.01624 163.213 3.01624C163.558 3.01624 163.837 2.7224 163.837 2.35942C163.837 2.09151 163.689 1.86681 163.476 1.7631V1.77175Z" fill="var(--fill-0, white)"/>
<path id="Vector_10" d="M18.7147 19.9727C18.7147 19.9727 15.1674 16.3948 12.9421 12.6008C12.9421 12.6008 10.4212 8.87596 9.77252 2.06581C9.77252 2.06581 9.77252 2.06581 9.77252 2.04852C9.74789 1.80654 9.6083 1.62505 9.44407 1.62505C9.27984 1.62505 9.14025 1.80654 9.11561 2.04852C9.11561 2.05717 9.11561 2.06581 9.11561 2.06581C8.46691 8.87596 5.9378 12.5922 5.9378 12.5922C3.72072 16.3775 0.181604 19.9468 0.181604 19.9468C0.181604 19.9468 0.181604 19.9468 0.173392 19.9554C0.000952654 20.1283 -0.0483158 20.353 0.0502211 20.4913C0.140547 20.6122 0.321197 20.6209 0.501848 20.5345C0.501848 20.5345 0.518271 20.5345 0.526482 20.5345C0.526482 20.5345 5.19877 17.5356 9.43586 17.5269C13.6729 17.5356 18.3042 20.5085 18.3042 20.5085C18.3042 20.5085 18.3206 20.5085 18.337 20.5172C18.5259 20.6295 18.7312 20.6295 18.8297 20.4999C18.9282 20.3616 18.879 20.1369 18.7147 19.9727Z" fill="var(--fill-0, white)"/>
</g>
</svg>
