<svg width="95" height="13" viewBox="0 0 95 13" fill="none" xmlns="http://www.w3.org/2000/svg">
<path d="M32.2219 3.47557C32.2219 3.13616 31.9671 2.8626 31.651 2.8626C31.3349 2.8626 31.0802 3.13616 31.0802 3.47557V7.3509C31.0802 8.30328 30.3584 9.07834 29.4714 9.07834C28.5845 9.07834 27.8627 8.30328 27.8627 7.3509V3.47557C27.8627 3.13616 27.6079 2.8626 27.2918 2.8626C26.9757 2.8626 26.721 3.13616 26.721 3.47557V7.3509C26.721 8.98209 27.957 10.3093 29.4761 10.3093C30.9952 10.3093 32.2313 8.98209 32.2313 7.3509V3.47557H32.2219Z" fill="white"/>
<path d="M52.0833 3.47557C52.0833 3.13616 51.8286 2.8626 51.5125 2.8626C51.1964 2.8626 50.9416 3.13616 50.9416 3.47557V5.78557H47.7241V3.47557C47.7241 3.13616 47.4694 2.8626 47.1533 2.8626C46.8372 2.8626 46.5824 3.13616 46.5824 3.47557V9.32657C46.5824 9.66597 46.8372 9.93953 47.1533 9.93953C47.4694 9.93953 47.7241 9.66597 47.7241 9.32657V7.01656H50.9416V9.32657C50.9416 9.66597 51.1964 9.93953 51.5125 9.93953C51.8286 9.93953 52.0833 9.66597 52.0833 9.32657V3.47557Z" fill="white"/>
<path d="M41.9857 8.9365L40.0891 6.39853L41.9857 3.86057C42.0659 3.75418 42.1131 3.62247 42.1131 3.47557C42.1131 3.13616 41.8583 2.8626 41.5422 2.8626C41.3629 2.8626 41.2025 2.95379 41.0987 3.09563L39.3626 5.42083L37.6265 3.09563C37.5227 2.95885 37.3623 2.8626 37.183 2.8626C36.8669 2.8626 36.6122 3.13616 36.6122 3.47557C36.6122 3.62247 36.6593 3.75418 36.7395 3.86057L38.6361 6.4036L36.7395 8.94156C36.6593 9.04795 36.6122 9.17966 36.6122 9.32657C36.6122 9.66597 36.8669 9.93953 37.183 9.93953C37.3623 9.93953 37.5227 9.84834 37.6265 9.7065L39.3626 7.3813L41.0987 9.7065C41.2025 9.84328 41.3629 9.93953 41.5422 9.93953C41.8583 9.93953 42.1131 9.66597 42.1131 9.32657C42.1131 9.17966 42.0659 9.04795 41.9857 8.94156V8.9365Z" fill="white"/>
<path d="M59.8286 10.2483C57.8613 10.2483 56.262 8.53102 56.262 6.41858C56.262 4.30614 57.8613 2.58884 59.8286 2.58884C61.7959 2.58884 63.3952 4.30614 63.3952 6.41858C63.3952 8.53102 61.7959 10.2483 59.8286 10.2483ZM59.8286 3.81476C58.4935 3.81476 57.4084 4.97989 57.4084 6.41351C57.4084 7.84714 58.4935 9.01227 59.8286 9.01227C61.1637 9.01227 62.2488 7.84714 62.2488 6.41351C62.2488 4.97989 61.1637 3.81476 59.8286 3.81476Z" fill="white"/>
<path d="M21.9923 8.70854H19.1333V3.47557C19.1333 3.13616 18.8785 2.8626 18.5625 2.8626C18.2464 2.8626 17.9916 3.13616 17.9916 3.47557V9.32657C17.9916 9.66597 18.2464 9.93953 18.5625 9.93953H21.9923C22.3084 9.93953 22.5631 9.66597 22.5631 9.32657C22.5631 8.98716 22.3084 8.7136 21.9923 8.7136V8.70854Z" fill="white"/>
<path d="M74.1189 3.47557C74.1189 3.13616 73.8641 2.8626 73.548 2.8626C73.3687 2.8626 73.2083 2.95379 73.1045 3.09563L70.8542 6.10978L68.6038 3.09563C68.5 2.95885 68.3396 2.86767 68.1603 2.86767C67.8442 2.86767 67.5895 3.14122 67.5895 3.48063V9.33163C67.5895 9.67104 67.8442 9.94459 68.1603 9.94459C68.4764 9.94459 68.7312 9.67104 68.7312 9.33163V5.2334L70.406 7.48261C70.5098 7.61939 70.6702 7.71564 70.8494 7.71564C71.0287 7.71564 71.1891 7.62446 71.2929 7.48261L72.9677 5.23846V9.3367C72.9677 9.67611 73.2225 9.94966 73.5386 9.94966C73.8547 9.94966 74.1094 9.67611 74.1094 9.3367V3.47557H74.1189Z" fill="white"/>
<path d="M85.4357 3.47557C85.4357 3.13616 85.181 2.8626 84.8649 2.8626C84.6856 2.8626 84.5252 2.95379 84.4214 3.09563L82.171 6.10978L79.9206 3.09563C79.8169 2.95885 79.6565 2.86767 79.4772 2.86767C79.1611 2.86767 78.9063 3.14122 78.9063 3.48063V9.33163C78.9063 9.67104 79.1611 9.94459 79.4772 9.94459C79.7933 9.94459 80.048 9.67104 80.048 9.33163V5.2334L81.7228 7.48261C81.8266 7.61939 81.987 7.71564 82.1663 7.71564C82.3456 7.71564 82.506 7.62446 82.6098 7.48261L84.2846 5.23846V9.3367C84.2846 9.67611 84.5393 9.94966 84.8554 9.94966C85.1715 9.94966 85.4263 9.67611 85.4263 9.3367V3.47557H85.4357Z" fill="white"/>
<path d="M94.2291 8.70879H91.3702V6.96615H93.6536C93.9697 6.96615 94.2244 6.6926 94.2244 6.35319C94.2244 6.01378 93.9697 5.74023 93.6536 5.74023H91.3702V4.09384H94.2291C94.5452 4.09384 94.8 3.82029 94.8 3.48088C94.8 3.14147 94.5452 2.86792 94.2291 2.86792H90.7993C90.4832 2.86792 90.2285 3.14147 90.2285 3.48595V9.33695C90.2285 9.67636 90.4832 9.94991 90.7993 9.94991H94.2291C94.5452 9.94991 94.8 9.67636 94.8 9.33695C94.8 8.99754 94.5452 8.72398 94.2291 8.72398V8.70879Z" fill="white"/>
<path d="M93.9221 1.03868L92.1337 0.106402C92.0393 0.0405339 91.9308 0 91.8081 0C91.492 0 91.2372 0.273604 91.2372 0.613076C91.2372 0.891746 91.4118 1.12482 91.6477 1.20082L91.6949 1.21602L93.6767 1.75309C93.705 1.75816 93.7381 1.76829 93.7711 1.76829C93.9693 1.76829 94.1297 1.59602 94.1297 1.38322C94.1297 1.22615 94.0448 1.09442 93.9221 1.03361V1.03868Z" fill="white"/>
<path d="M10.7523 11.7062C10.7523 11.7062 8.71425 9.609 7.43574 7.38511C7.43574 7.38511 5.98739 5.20175 5.61468 1.2099C5.61468 1.2099 5.61468 1.2099 5.61468 1.19977C5.60053 1.05793 5.52033 0.951543 5.42597 0.951543C5.33162 0.951543 5.25142 1.05793 5.23726 1.19977C5.23726 1.20483 5.23726 1.2099 5.23726 1.2099C4.86456 5.20175 3.41149 7.38004 3.41149 7.38004C2.13769 9.59886 0.104338 11.691 0.104338 11.691C0.104338 11.691 0.104338 11.691 0.0996203 11.6961C0.000547332 11.7974 -0.0277592 11.9291 0.0288539 12.0102C0.0807493 12.0811 0.18454 12.0862 0.288331 12.0355C0.288331 12.0355 0.297766 12.0355 0.302484 12.0355C0.302484 12.0355 2.98689 10.2777 5.42126 10.2726C7.85562 10.2777 10.5164 12.0203 10.5164 12.0203C10.5164 12.0203 10.5259 12.0203 10.5353 12.0254C10.6438 12.0912 10.7618 12.0912 10.8184 12.0153C10.875 11.9342 10.8467 11.8025 10.7523 11.7062Z" fill="white"/>
</svg>
