<svg preserveAspectRatio="none" width="100%" height="100%" overflow="visible" style="display: block;" viewBox="0 0 141.679 18.044" fill="none" xmlns="http://www.w3.org/2000/svg">
<g id="Vector">
<path d="M48.1556 5.19424C48.1556 4.68699 47.7749 4.27817 47.3025 4.27817C46.8301 4.27817 46.4494 4.68699 46.4494 5.19424V10.9859C46.4494 12.4093 45.3706 13.5676 44.0451 13.5676C42.7196 13.5676 41.6408 12.4093 41.6408 10.9859V5.19424C41.6408 4.68699 41.2601 4.27817 40.7877 4.27817C40.3153 4.27817 39.9345 4.68699 39.9345 5.19424V10.9859C39.9345 13.4238 41.7818 15.4073 44.0521 15.4073C46.3225 15.4073 48.1697 13.4238 48.1697 10.9859V5.19424H48.1556Z" fill="var(--fill-0, black)"/>
<path d="M77.8386 5.19424C77.8386 4.68699 77.4579 4.27817 76.9855 4.27817C76.5131 4.27817 76.1324 4.68699 76.1324 5.19424V8.64655H71.3238V5.19424C71.3238 4.68699 70.9431 4.27817 70.4707 4.27817C69.9983 4.27817 69.6175 4.68699 69.6175 5.19424V13.9386C69.6175 14.4458 69.9983 14.8546 70.4707 14.8546C70.9431 14.8546 71.3238 14.4458 71.3238 13.9386V10.4863H76.1324V13.9386C76.1324 14.4458 76.5131 14.8546 76.9855 14.8546C77.4579 14.8546 77.8386 14.4458 77.8386 13.9386V5.19424Z" fill="var(--fill-0, black)"/>
<path d="M62.7477 13.3556L59.9133 9.56262L62.7477 5.76962C62.8676 5.61064 62.9381 5.41379 62.9381 5.19424C62.9381 4.68699 62.5573 4.27817 62.0849 4.27817C61.817 4.27817 61.5773 4.41444 61.4222 4.62643L58.8275 8.10145L56.2328 4.62643C56.0777 4.42201 55.838 4.27817 55.5701 4.27817C55.0977 4.27817 54.7169 4.68699 54.7169 5.19424C54.7169 5.41379 54.7875 5.61064 54.9073 5.76962L57.7417 9.57019L54.9073 13.3632C54.7875 13.5222 54.7169 13.719 54.7169 13.9386C54.7169 14.4458 55.0977 14.8546 55.5701 14.8546C55.838 14.8546 56.0777 14.7184 56.2328 14.5064L58.8275 11.0314L61.4222 14.5064C61.5773 14.7108 61.817 14.8546 62.0849 14.8546C62.5573 14.8546 62.9381 14.4458 62.9381 13.9386C62.9381 13.719 62.8676 13.5222 62.7477 13.3632V13.3556Z" fill="var(--fill-0, black)"/>
<path d="M89.414 15.3161C86.4738 15.3161 84.0837 12.7496 84.0837 9.59258C84.0837 6.43554 86.4738 3.86902 89.414 3.86902C92.3541 3.86902 94.7443 6.43554 94.7443 9.59258C94.7443 12.7496 92.3541 15.3161 89.414 15.3161ZM89.414 5.70117C87.4186 5.70117 85.797 7.44246 85.797 9.58501C85.797 11.7276 87.4186 13.4689 89.414 13.4689C91.4093 13.4689 93.031 11.7276 93.031 9.58501C93.031 7.44246 91.4093 5.70117 89.414 5.70117Z" fill="var(--fill-0, black)"/>
<path d="M32.8675 13.0149H28.5948V5.19424C28.5948 4.68699 28.214 4.27817 27.7416 4.27817C27.2692 4.27817 26.8885 4.68699 26.8885 5.19424V13.9386C26.8885 14.4458 27.2692 14.8546 27.7416 14.8546H32.8675C33.3399 14.8546 33.7206 14.4458 33.7206 13.9386C33.7206 13.4313 33.3399 13.0225 32.8675 13.0225V13.0149Z" fill="var(--fill-0, black)"/>
<path d="M110.771 5.19424C110.771 4.68699 110.39 4.27817 109.918 4.27817C109.65 4.27817 109.41 4.41444 109.255 4.62643L105.892 9.13108L102.529 4.62643C102.373 4.42201 102.134 4.28574 101.866 4.28574C101.393 4.28574 101.013 4.69456 101.013 5.20181V13.9461C101.013 14.4534 101.393 14.8622 101.866 14.8622C102.338 14.8622 102.719 14.4534 102.719 13.9461V7.82133L105.222 11.1828C105.377 11.3872 105.617 11.531 105.885 11.531C106.153 11.531 106.392 11.3948 106.547 11.1828L109.05 7.8289V13.9537C109.05 14.461 109.431 14.8698 109.904 14.8698C110.376 14.8698 110.757 14.461 110.757 13.9537V5.19424H110.771Z" fill="var(--fill-0, black)"/>
<path d="M127.684 5.19424C127.684 4.68699 127.303 4.27817 126.831 4.27817C126.563 4.27817 126.323 4.41444 126.168 4.62643L122.805 9.13108L119.442 4.62643C119.286 4.42201 119.047 4.28574 118.779 4.28574C118.306 4.28574 117.926 4.69456 117.926 5.20181V13.9461C117.926 14.4534 118.306 14.8622 118.779 14.8622C119.251 14.8622 119.632 14.4534 119.632 13.9461V7.82133L122.135 11.1828C122.29 11.3872 122.53 11.531 122.798 11.531C123.066 11.531 123.305 11.3948 123.46 11.1828L125.963 7.8289V13.9537C125.963 14.461 126.344 14.8698 126.817 14.8698C127.289 14.8698 127.67 14.461 127.67 13.9537V5.19424H127.684Z" fill="var(--fill-0, black)"/>
<path d="M140.826 13.0153H136.553V10.4109H139.965C140.438 10.4109 140.819 10.0021 140.819 9.49486C140.819 8.98761 140.438 8.57878 139.965 8.57878H136.553V6.11826H140.826C141.298 6.11826 141.679 5.70943 141.679 5.20218C141.679 4.69494 141.298 4.28611 140.826 4.28611H135.7C135.227 4.28611 134.847 4.69494 134.847 5.20976V13.9541C134.847 14.4613 135.227 14.8702 135.7 14.8702H140.826C141.298 14.8702 141.679 14.4613 141.679 13.9541C141.679 13.4468 141.298 13.038 140.826 13.038V13.0153Z" fill="var(--fill-0, black)"/>
<path d="M140.367 1.55231L137.694 0.159017C137.553 0.060578 137.391 0 137.207 0C136.735 0 136.354 0.408902 136.354 0.916243C136.354 1.33272 136.615 1.68104 136.968 1.79462L137.038 1.81734L140 2.62C140.042 2.62757 140.092 2.64272 140.141 2.64272C140.437 2.64272 140.677 2.38526 140.677 2.06723C140.677 1.83249 140.55 1.63561 140.367 1.54474V1.55231Z" fill="var(--fill-0, black)"/>
<path d="M16.0694 17.495C16.0694 17.495 13.0235 14.3607 11.1127 11.0371C11.1127 11.0371 8.94816 7.77403 8.39116 1.8082C8.39116 1.8082 8.39116 1.8082 8.39116 1.79305C8.37 1.58107 8.25014 1.42208 8.10913 1.42208C7.96811 1.42208 7.84825 1.58107 7.8271 1.79305C7.8271 1.80063 7.8271 1.8082 7.8271 1.8082C7.27009 7.77403 5.09848 11.0295 5.09848 11.0295C3.19479 14.3455 0.155933 17.4723 0.155933 17.4723C0.155933 17.4723 0.155933 17.4723 0.148883 17.4799C0.000817992 17.6313 -0.0414862 17.8281 0.0431222 17.9492C0.12068 18.0552 0.275795 18.0628 0.430911 17.9871C0.430911 17.9871 0.445012 17.9871 0.452063 17.9871C0.452063 17.9871 4.46391 15.36 8.10208 15.3524C11.7402 15.36 15.7168 17.9644 15.7168 17.9644C15.7168 17.9644 15.7309 17.9644 15.745 17.972C15.9072 18.0704 16.0835 18.0704 16.1681 17.9568C16.2527 17.8357 16.2104 17.6388 16.0694 17.495Z" fill="var(--fill-0, black)"/>
</g>
</svg>
