<svg preserveAspectRatio="none" width="100%" height="100%" overflow="visible" style="display: block;" viewBox="0 0 20.5559 26.0836" fill="none" xmlns="http://www.w3.org/2000/svg">
<path id="Vector" d="M4.38889 0H14.7509C14.9768 0 15.1601 0.188441 15.1601 0.420703V2.68964H17.7333C17.9592 2.68964 18.1424 2.87808 18.1424 3.11034V23.1823C18.1424 23.4146 17.9592 23.603 17.7333 23.603H3.39153C3.16564 23.603 2.98237 23.4146 2.98237 23.1823V20.9134H0.409157C0.183269 20.9134 0 20.725 0 20.4927V4.51246C0 4.39632 0.0458174 4.29115 0.119337 4.21446L4.09907 0.122424C4.17791 0.0402556 4.28447 0 4.38889 0ZM5.80495 26.0836C5.57906 26.0836 5.39579 25.8951 5.39579 25.6629C5.39579 25.4306 5.57906 25.2422 5.80495 25.2422H19.7376V5.59086C19.7376 5.35859 19.9208 5.17015 20.1467 5.17015C20.3726 5.17015 20.5559 5.35859 20.5559 5.59086V25.6629C20.5559 25.8951 20.3726 26.0836 20.1467 26.0836H5.80495ZM15.1613 3.5311V20.4919C15.1613 20.7241 14.978 20.9126 14.7521 20.9126H3.80172V22.7608H17.3252V3.5302H15.1611L15.1613 3.5311ZM14.343 3.12683V0.840367H4.79924V4.5117C4.79924 4.74396 4.61598 4.9324 4.39009 4.9324H0.819514V20.0712H14.343V3.12683ZM3.73462 17.8469C3.50873 17.8469 3.32546 17.6585 3.32546 17.4262C3.32546 17.194 3.50873 17.0055 3.73462 17.0055H11.4276C11.6535 17.0055 11.8367 17.194 11.8367 17.4262C11.8367 17.6585 11.6535 17.8469 11.4276 17.8469H3.73462ZM3.73462 14.4572C3.50873 14.4572 3.32546 14.2687 3.32546 14.0365C3.32546 13.8042 3.50873 13.6158 3.73462 13.6158H11.4276C11.6535 13.6158 11.8367 13.8042 11.8367 14.0365C11.8367 14.2687 11.6535 14.4572 11.4276 14.4572H3.73462ZM3.73462 11.0674C3.50873 11.0674 3.32546 10.879 3.32546 10.6467C3.32546 10.4145 3.50873 10.226 3.73462 10.226H11.4276C11.6535 10.226 11.8367 10.4145 11.8367 10.6467C11.8367 10.879 11.6535 11.0674 11.4276 11.0674H3.73462ZM3.73462 7.67771C3.50873 7.67771 3.32546 7.48927 3.32546 7.25701C3.32546 7.02474 3.50873 6.8363 3.73462 6.8363H11.4276C11.6535 6.8363 11.8367 7.02474 11.8367 7.25701C11.8367 7.48927 11.6535 7.67771 11.4276 7.67771H3.73462ZM1.39795 4.09192H3.97968V1.43734L1.39795 4.09192Z" fill="var(--fill-0, #C2C2BD)"/>
</svg>
