<svg preserveAspectRatio="none" width="100%" height="100%" overflow="visible" style="display: block;" viewBox="0 0 23.858 23.8594" fill="none" xmlns="http://www.w3.org/2000/svg">
<g id="Group">
<path id="Vector" d="M11.8814 23.8594H11.9766C16.7147 23.8594 19.4649 23.3824 21.413 21.4911C23.3993 19.4849 23.858 16.7161 23.858 11.9964V11.863C23.858 7.14476 23.3993 4.39449 21.413 2.36833C19.4663 0.477075 16.6962 0 11.978 0H11.8828C7.14476 0 4.39306 0.477075 2.44501 2.36833C0.458617 4.3746 0 7.14476 0 11.863V11.9964C0 16.7147 0.458617 19.465 2.44501 21.4911C4.37461 23.3824 7.14476 23.8594 11.8814 23.8594Z" fill="var(--fill-0, #565656)"/>
<path id="Vector_2" d="M21.0178 11.7487C21.0178 11.6578 20.9439 11.5826 20.8531 11.5783C17.592 11.4548 15.6074 11.0389 14.219 9.65041C12.8276 8.25914 12.4131 6.273 12.2896 3.00491C12.2868 2.91405 12.2115 2.84024 12.1192 2.84024H11.7388C11.6479 2.84024 11.5726 2.91405 11.5684 3.00491C11.4449 6.27158 11.0303 8.25914 9.63905 9.65041C8.2492 11.0403 6.2659 11.4548 3.00491 11.5783C2.91405 11.5812 2.84024 11.6564 2.84024 11.7487V12.1292C2.84024 12.22 2.91405 12.2953 3.00491 12.2995C6.2659 12.423 8.2506 12.839 9.63905 14.2275C11.0275 15.6159 11.442 17.5964 11.567 20.8516C11.5698 20.9425 11.6451 21.0163 11.7373 21.0163H12.1192C12.2101 21.0163 12.2853 20.9425 12.2896 20.8516C12.4145 17.5964 12.8291 15.6159 14.2176 14.2275C15.6074 12.8376 17.5906 12.423 20.8516 12.2995C20.9425 12.2967 21.0164 12.2215 21.0164 12.1292V11.7487H21.0178Z" fill="var(--fill-0, white)"/>
</g>
</svg>
