<svg preserveAspectRatio="none" width="100%" height="100%" overflow="visible" style="display: block;" viewBox="0 0 39.996 40" fill="none" xmlns="http://www.w3.org/2000/svg">
<g id="vk-svgrepo-com 1">
<rect x="0.272727" y="0.272727" width="39.4505" height="39.4545" rx="19.7253" stroke="var(--stroke-0, #C2C2BD)" stroke-width="0.545455"/>
<path id="Vector" d="M31.453 13.84C31.183 14.689 30.819 15.428 30.363 16.099L30.382 16.069C29.934 16.8157 29.399 17.6783 28.777 18.657C28.2437 19.4297 27.9613 19.8297 27.93 19.857C27.792 20.03 27.696 20.242 27.663 20.475L27.662 20.482C27.689 20.694 27.787 20.879 27.93 21.017L28.33 21.463C30.47 23.6623 31.6737 25.1783 31.941 26.011C31.976 26.103 31.996 26.209 31.996 26.32C31.996 26.514 31.934 26.693 31.829 26.84L31.831 26.837C31.655 27.018 31.409 27.13 31.137 27.13C31.107 27.13 31.076 27.129 31.047 27.126H31.051H28.42C28.419 27.126 28.417 27.126 28.415 27.126C28.078 27.126 27.768 27.008 27.525 26.812L27.528 26.814C27.174 26.523 26.859 26.208 26.577 25.866L26.568 25.854C26.1073 25.3333 25.6987 24.895 25.342 24.539C24.154 23.4097 23.2773 22.845 22.712 22.845C22.691 22.843 22.667 22.842 22.642 22.842C22.477 22.842 22.323 22.893 22.196 22.98L22.199 22.978C22.095 23.108 22.032 23.276 22.032 23.457C22.032 23.493 22.034 23.527 22.039 23.562V23.558C22.012 23.872 21.996 24.237 21.996 24.606C21.996 24.725 21.998 24.843 22.001 24.961V24.944V26.103C22.011 26.15 22.017 26.204 22.017 26.259C22.017 26.501 21.907 26.717 21.735 26.86L21.734 26.861C21.347 27.038 20.895 27.142 20.418 27.142C20.316 27.142 20.216 27.137 20.117 27.128L20.13 27.129C18.556 27.099 17.096 26.638 15.855 25.861L15.89 25.881C14.379 24.963 13.127 23.768 12.173 22.356L12.146 22.314C11.24 21.112 10.395 19.754 9.675 18.322L9.605 18.168C9.184 17.366 8.748 16.38 8.372 15.366L8.312 15.181C8.159 14.725 8.048 14.195 8.002 13.646L8 13.621C8 13.1157 8.29733 12.863 8.892 12.863H11.522C11.546 12.861 11.574 12.86 11.603 12.86C11.851 12.86 12.08 12.945 12.261 13.088L12.259 13.086C12.459 13.305 12.607 13.574 12.68 13.874L12.683 13.886C13.167 15.253 13.68 16.401 14.27 17.501L14.203 17.364C14.685 18.334 15.218 19.169 15.826 19.94L15.803 19.909C16.3363 20.5637 16.7523 20.891 17.051 20.891C17.06 20.892 17.071 20.892 17.083 20.892C17.231 20.892 17.36 20.812 17.43 20.692L17.431 20.69C17.505 20.5 17.548 20.279 17.548 20.049C17.548 20 17.546 19.951 17.542 19.903V19.909V16.03C17.521 15.573 17.409 15.146 17.222 14.763L17.23 14.782C17.106 14.518 16.957 14.29 16.78 14.087L16.783 14.091C16.619 13.927 16.507 13.712 16.472 13.472L16.471 13.466C16.471 13.296 16.549 13.143 16.671 13.043L16.672 13.042C16.793 12.931 16.955 12.864 17.132 12.864H17.14H21.286C21.308 12.861 21.333 12.86 21.359 12.86C21.554 12.86 21.729 12.948 21.845 13.086L21.846 13.087C21.949 13.275 22.01 13.5 22.01 13.738C22.01 13.776 22.008 13.813 22.005 13.85V13.845V19.018C22.003 19.042 22.002 19.07 22.002 19.098C22.002 19.282 22.053 19.455 22.141 19.602L22.139 19.598C22.212 19.706 22.334 19.776 22.472 19.776C22.648 19.764 22.809 19.706 22.944 19.614L22.941 19.616C23.213 19.429 23.447 19.216 23.65 18.975L23.654 18.97C24.261 18.284 24.821 17.526 25.309 16.72L25.348 16.65C25.692 16.08 26.064 15.378 26.401 14.657L26.463 14.51L26.909 13.618C27.064 13.172 27.48 12.858 27.969 12.858C27.988 12.858 28.007 12.858 28.026 12.859H28.023H30.654C31.3647 12.859 31.6313 13.186 31.454 13.84H31.453Z" fill="var(--fill-0, #565656)"/>
</g>
</svg>
