<svg preserveAspectRatio="none" width="100%" height="100%" overflow="visible" style="display: block;" viewBox="0 0 40 40" fill="none" xmlns="http://www.w3.org/2000/svg">
<g id="telegram-alt-svgrepo-com 1">
<rect x="0.275" y="0.275" width="39.45" height="39.45" rx="19.725" stroke="var(--stroke-0, #C2C2BD)" stroke-width="0.55"/>
<path id="Vector" d="M27.9903 12.4139L11.6903 18.7139C10.5903 19.1139 10.5903 19.8139 11.4903 20.0139L15.5903 21.3139L17.1903 26.1139C17.3903 26.6139 17.2903 26.8139 17.7903 26.8139C18.1903 26.8139 18.3903 26.6139 18.5903 26.4139C18.6903 26.3139 19.5903 25.4139 20.5903 24.4139L24.7903 27.5139C25.5903 27.9139 26.0903 27.7139 26.2903 26.8139L29.0903 13.7139C29.3903 12.6139 28.6903 12.0139 27.9903 12.4139ZM25.8903 15.4139L18.0903 22.5139L17.7903 25.8139L16.1903 21.0139L25.3903 15.2139C25.7903 14.9139 26.1903 15.1139 25.8903 15.4139Z" fill="var(--fill-0, #565656)"/>
</g>
</svg>
